<?xml version="1.0" encoding="iso-8859-1"?>
<!-- Uploaded to: SVG Repo, www.svgrepo.com, Generator: SVG Repo Mixer Tools -->
<svg fill="#000000" height="75px" width="75px" version="1.1" id="Layer_1" xmlns="http://www.w3.org/2000/svg" xmlns:xlink="http://www.w3.org/1999/xlink" 
	 viewBox="0 0 512.052 512.052" xml:space="preserve">
<g transform="translate(0 -1)">
	<g>
		<g>
			<path d="M136.559,274.119c-18.825,0-34.133,15.309-34.133,34.133v17.067h68.267v-17.067
				C170.693,289.428,155.384,274.119,136.559,274.119z"/>
			<path d="M375.493,274.119c-18.825,0-34.133,15.309-34.133,34.133v17.067h68.267v-17.067
				C409.626,289.428,394.317,274.119,375.493,274.119z"/>
			<path d="M508.698,368.83C488.226,336.856,308.361,55.768,297.413,34.076C281.225,2.025,261.41,0.753,256.026,1.026
				c-5.478-0.265-25.207,0.998-41.387,33.05C203.691,55.768,23.825,336.856,3.354,368.83c-2.176,3.396-3.328,7.339-3.328,11.409
				v66.022c0,6.409,2.85,12.416,7.825,16.461c4.966,4.053,11.409,5.615,17.707,4.335l76.868-15.906v10.701
				c0,9.412,7.654,17.067,17.067,17.067h8.533v25.6c0,4.71,3.823,8.533,8.533,8.533s8.533-3.823,8.533-8.533v-25.6h8.533
				c9.412,0,17.067-7.654,17.067-17.067V437.02l26.726-5.521l-0.341,6.699c-0.324,6.127,1.911,12.203,6.144,16.649
				c4.224,4.454,10.163,7.006,16.299,7.006h27.972v-85.333c0-4.71,3.823-8.533,8.533-8.533s8.533,3.823,8.533,8.533v85.333h27.972
				c6.135,0,12.075-2.551,16.299-7.006c4.233-4.446,6.468-10.522,6.144-16.64l-0.341-6.716l26.726,5.53v24.832
				c0,9.412,7.654,17.067,17.067,17.067h8.533v25.6c0,4.71,3.823,8.533,8.533,8.533s8.533-3.823,8.533-8.533v-25.6h8.533
				c9.412,0,17.067-7.654,17.067-17.067v-10.701l76.868,15.906c1.442,0.29,2.893,0.435,4.335,0.435c4.83,0,9.54-1.647,13.372-4.77
				c4.975-4.045,7.825-10.052,7.825-16.461v-66.022C512.026,376.169,510.874,372.226,508.698,368.83z M136.559,410.652
				c-4.71,0-8.533-3.823-8.533-8.533c0-4.71,3.823-8.533,8.533-8.533s8.533,3.823,8.533,8.533
				C145.093,406.829,141.27,410.652,136.559,410.652z M136.559,376.518c-4.71,0-8.533-3.823-8.533-8.533s3.823-8.533,8.533-8.533
				s8.533,3.823,8.533,8.533S141.27,376.518,136.559,376.518z M256.026,325.318c-4.71,0-8.533-3.823-8.533-8.533
				s3.823-8.533,8.533-8.533s8.533,3.823,8.533,8.533S260.736,325.318,256.026,325.318z M256.026,291.185
				c-4.71,0-8.533-3.823-8.533-8.533c0-4.71,3.823-8.533,8.533-8.533s8.533,3.823,8.533,8.533
				C264.559,287.362,260.736,291.185,256.026,291.185z M256.026,257.052c-4.71,0-8.533-3.823-8.533-8.533s3.823-8.533,8.533-8.533
				s8.533,3.823,8.533,8.533S260.736,257.052,256.026,257.052z M226.944,188.785l0.879-17.067h19.669v-59.733h17.067v59.733h19.669
				l0.879,17.067H226.944z M375.493,410.652c-4.71,0-8.533-3.823-8.533-8.533c0-4.71,3.823-8.533,8.533-8.533
				s8.533,3.823,8.533,8.533C384.026,406.829,380.203,410.652,375.493,410.652z M375.493,376.518c-4.71,0-8.533-3.823-8.533-8.533
				s3.823-8.533,8.533-8.533s8.533,3.823,8.533,8.533S380.203,376.518,375.493,376.518z M494.959,446.261
				c0,1.724-0.964,2.765-1.536,3.226c-0.572,0.469-1.792,1.212-3.464,0.853l-80.333-16.623v-91.332h-68.267v77.21l-27.631-5.717
				L302.2,188.785h-0.009l-3.678-71.979l-21.888-21.888h-41.199l-21.888,21.888l-3.678,71.979h-0.008l-11.529,225.092l-27.631,5.717
				v-77.21h-68.267v91.332L22.093,450.34c-1.655,0.375-2.893-0.384-3.465-0.853c-0.572-0.461-1.536-1.502-1.536-3.226v-66.022
				c0-0.811,0.213-1.545,0.631-2.21C51.209,325.737,218.778,63.746,229.88,41.764c12.211-24.192,24.653-23.714,24.934-23.731
				l1.229,0.094l0.879-0.06c0.597,0.051,13.005-0.563,25.25,23.697c11.102,21.982,178.671,283.972,212.156,336.273
				c0.418,0.657,0.631,1.391,0.631,2.202V446.261z"/>
		</g>
	</g>
</g>
</svg>